<svg preserveAspectRatio="none" overflow="visible" style="display: block;" width="24" height="24" viewBox="0 0 24 24" fill="none" xmlns="http://www.w3.org/2000/svg">
<g id="calendar-days">
<path id="Vector" d="M8 1.9992V3.99936M8 3.99936V5.99952M8 3.99936H5C3.89543 3.99936 3 4.89486 3 5.99952V9.99984M8 3.99936H16M16 1.9992V3.99936M16 3.99936V5.99952M16 3.99936H19C20.1046 3.99936 21 4.89486 21 5.99952V9.99984M3 9.99984H21M3 9.99984V20.0006C3 21.1053 3.89543 22.0008 5 22.0008H19C20.1046 22.0008 21 21.1053 21 20.0006V9.99984M8 14.0002H8.01M12 14.0002H12.01M16 14.0002H16.01M8 18.0005H8.01M12 18.0005H12.01M16 18.0005H16.01" stroke-width="1.7" stroke-linecap="round" stroke="#123E59"/>
</g>
</svg>
